<?xml version="1.0" encoding="utf-8"?>
<!-- Generator: Adobe Illustrator 21.0.2, SVG Export Plug-In . SVG Version: 6.00 Build 0)  -->
<svg version="1.1" id="horisontal_x5F_green_x5F_white"
	 xmlns="http://www.w3.org/2000/svg" xmlns:xlink="http://www.w3.org/1999/xlink" x="0px" y="0px" viewBox="0 0 216 44"
	 style="enable-background:new 0 0 216 44;" xml:space="preserve">
<style type="text/css">
	.st0{fill:#FFFFFF;}
	.st1{fill:#71BC4F;}
</style>
<g id="caption">
	<g>
		<path class="st0" d="M136.474258,27.357817l-5.148453-0.000002l0.000015,10.490578
			c0,2.980774,1.703217,2.748466,5.148453,2.593643v3.019444c-5.884048,0.774269-8.516357-0.812943-8.516357-5.613091
			l-0.000023-19.161777h3.367897v5.419449l5.148468,0.000002V27.357817z"/>
		<path class="st0" d="M141.855026,35.332237c0.657974,3.445251,3.329102,5.458263,7.006638,5.458263
			c2.554825,0.000004,4.41301-0.929092,5.574265-2.825947l2.864609,1.625877c-1.896851,2.90329-4.722641,4.374344-8.516342,4.37434
			c-3.058105,0-5.574265-0.967762-7.509781-2.86462c-1.896866-1.935528-2.864624-4.374348-2.864624-7.316307
			c-0.000015-2.903292,0.92894-5.342108,2.82579-7.277636s4.335648-2.90329,7.316269-2.903288
			c2.825943,0,5.148605,1.006435,6.929306,3.019447c1.819366,1.974199,2.709656,4.374201,2.709656,7.200153
			c0,0.503288-0.038666,1.006432-0.116013,1.50972L141.855026,35.332237z M141.855026,32.390278l12.929352,0.000004
			c-0.58078-3.677561-3.13559-5.613091-6.232513-5.613091C144.951797,26.777189,142.435654,28.983696,141.855026,32.390278z"/>
		<path class="st0" d="M178.050034,24.106073l3.367752,0.000002l0.000015,19.355419h-3.367752v-3.329098
			c-1.664536,2.554829-4.103348,3.832382-7.316284,3.832382c-2.709793,0-5.03244-0.967766-6.929153-2.942108
			c-1.896851-1.974197-2.864624-4.413013-2.864624-7.238819c0-2.825953,0.967758-5.225954,2.864609-7.200294
			c1.896698-1.974197,4.21936-2.980631,6.929138-2.980631c3.212936,0.000002,5.651749,1.277416,7.316299,3.832388V24.106073z
			 M176.075851,38.738827c1.316086-1.354897,1.974197-2.980774,1.974182-4.954971c0-1.974342-0.658112-3.600075-1.974197-4.916304
			c-1.316223-1.354898-2.942093-2.013014-4.91629-2.013014c-1.935516,0-3.561386,0.658113-4.877472,2.01301
			c-1.316223,1.316229-1.974335,2.941961-1.974335,4.916304c0.000015,1.974197,0.658127,3.600075,1.97435,4.954975
			c1.316086,1.316082,2.941956,1.974197,4.877472,1.974197C173.133759,40.713024,174.759628,40.054913,176.075851,38.738827z"/>
		<path class="st0" d="M214.709381,31.422535l0.000015,12.038971l-3.367767-0.000004V31.538544
			c-0.000015-2.980631-1.664551-4.722664-4.258194-4.722664c-2.903275-0.000002-4.761459,1.896854-4.761459,5.884064
			l0.000015,10.761559l-3.367752-0.000004l-0.000015-11.922958c0-2.980631-1.587204-4.722664-4.103363-4.722664
			c-2.82579-0.000002-4.954956,1.974195-4.954956,5.884064l0.000015,10.761559l-3.367752-0.000004l-0.000031-19.355417h3.367767
			v2.593641c1.316223-2.051682,3.25174-3.096785,5.767899-3.096785c2.593628,0.000002,4.490479,1.083921,5.690414,3.290428
			c1.354889-2.206507,3.367889-3.290424,6.07753-3.290424C211.76741,23.60294,214.709366,26.622387,214.709381,31.422535z"/>
		<path class="st1" d="M84.1409,16.699764l-1.542549,4.239069c-0.453606,1.248556-1.640076,2.078953-2.968384,2.078953
			l-5.292557-0.000002c-2.56501,0-4.856674,1.604593-5.734337,4.014479l5.895401,0.000002l-2.300529,6.317951h-5.893913
			l-1.479019,4.060364l-2.299046,6.317951h-2.211876c-2.192677,0-3.717503-2.179382-2.968391-4.239071l0.756496-2.078884
			l1.479015-4.060364l2.299049-6.317951l0.735817-2.018351c1.815891-4.991117,6.560268-8.314152,11.872036-8.31415
			L84.1409,16.699764z"/>
		<path class="st1" d="M96.420753,24.09197l-0.876175,2.412844c-1.979912-2.343441-5.171402-2.881216-7.420227-2.881218
			c-2.864944,0-5.264481,0.967764-7.239952,2.903362c-1.93409,1.897144-3.13533,4.181425-3.637695,6.851395
			c-0.542252,2.82653-0.178772,5.319168,1.199768,7.471928c1.158401,1.809994,3.077728,3.200386,5.694458,3.212147
			c1.657799,0.005917,3.359932-0.353081,4.640953-1.059387c0.359039-0.196526,0.697403-0.422558,1.015068-0.675213
			l-0.432915,1.193871l1.12294-0.008873l5.13002-0.039898l1.31353-3.58009l5.799332-15.800865L96.420753,24.09197z
			 M92.189087,33.843773v0.03838c-0.503838,2.825085-2.748222,4.683849-5.419617,4.683849
			c-2.671402,0-4.219864-1.818871-3.716019-4.722233c0.50235-2.903362,2.709801-4.723745,5.379715-4.723743
			C91.104568,29.120026,92.691452,30.940409,92.189087,33.843773z"/>
		<path class="st1" d="M122.731354,33.781734c-0.37529,1.026852-3.531319,9.680885-3.531319,9.680885l-0.004425,0.008801h-6.272171
			c0,0,3.247726-8.930618,3.395485-9.336945c0.093086-0.252655,0.50795-1.464787,0.599205-1.777527
			c0.998642-3.422329-2.676743-3.329985-3.247437-3.219168c-1.379463,0.267857-2.622269,1.037239-3.550163,3.615511
			c-0.001472,0.001518-0.001472,0.004475-0.002953,0.005917l-3.896263,10.713722h-6.360817l7.137985-19.380957l6.272156,0.000002
			l-0.645683,1.777454l-0.010345,0.056129c0.190613-0.212757,0.390076-0.410725,0.598412-0.591017
			c1.348999-1.19084,3.045212-1.77154,5.093079-1.77154c0.195038,0,0.385635,0.007359,0.573288,0.019192
			c0.183212,0.013348,0.36348,0.032537,0.539307,0.056129c0.094559,0.013348,0.192078,0.029579,0.294029,0.048771
			c0.047287,0.008873,0.094566,0.019262,0.140373,0.028065c0.087166,0.019262,0.175827,0.039896,0.270378,0.065075
			c0.06945,0.019192,0.140373,0.039825,0.215729,0.062046c0.221626,0.069405,0.466896,0.16103,0.747635,0.283678
			c0.00296,0,0.004425,0.001442,0.007385,0.002956c0.011826,0.005917,0.025116,0.010317,0.036942,0.017677
			c0.651596,0.289665,1.229317,0.732929,1.645981,1.313559C124.656578,28.078396,123.369652,32.236156,122.731354,33.781734z"/>
	</g>
</g>
<g id="logo_1_">
	<path class="st0" d="M51.890652,0.0625l-3.54884,0.000002l-6.063484,16.658276l-9.049854,0.000004l-3.689285,10.13541
		l9.046089-0.000004c-1.502621,3.90612-5.258377,6.495348-9.455854,6.495352l-8.205347,0.000004
		c-2.130636,0-4.033737,1.332703-4.762255,3.334927l-2.474403,6.800484l15.442003-0.000008
		c8.522423-0.000004,16.134109-5.329784,19.048767-13.338205L56.65284,6.863361
		C57.85461,3.557767,55.407631,0.062498,51.890652,0.0625z"/>
	<path class="st1" d="M5.549821,43.486958l3.548841-0.000004l6.063482-16.658276l9.049854-0.000004l3.689287-10.135408
		l-9.046091,0.000004c1.502619-3.90612,5.258379-6.495349,9.455854-6.495351l8.205347-0.000004
		c2.130638-0.000001,4.033737-1.332705,4.762257-3.334927l2.474403-6.800484L28.31105,0.062511
		C19.78863,0.062515,12.17694,5.392295,9.262285,13.400716L0.78763,36.686096
		C-0.414138,39.991692,2.03284,43.486958,5.549821,43.486958z"/>
</g>
</svg>
